<?xml version="1.0" encoding="UTF-8" standalone="no"?>
<!DOCTYPE svg PUBLIC "-//W3C//DTD SVG 1.1//EN" "http://www.w3.org/Graphics/SVG/1.1/DTD/svg11.dtd">
<!-- Generated by graphviz version 2.40.1 (20161225.0304)
 -->
<!-- Title: TD Pages: 1 -->
<svg xmlns="http://www.w3.org/2000/svg" xmlns:xlink="http://www.w3.org/1999/xlink" width="599pt" height="739pt" viewBox="0.00 0.00 598.50 738.90">
  <g id="graph0" class="graph" transform="scale(1 1) rotate(0) translate(4 734.9)">
    <title>TD</title>
    <g id="a_graph0">
      <a xlink:title="Click the boxes for further information">
        <polygon fill="#ffffff" stroke="transparent" points="-4,4 -4,-734.9 594.5,-734.9 594.5,4 -4,4"/>
      </a>
    </g>
    <!-- 3&#45;&gt;4 -->
    <!-- 3&#45;&gt;5 -->
    <!-- 4&#45;&gt;5 -->
    <g id="edge3" class="edge">
      <title>4-&gt;5</title>
      <path fill="none" stroke="#000000" d="M302.821,-603C311.202,-603 319.6641,-603 328.0915,-603"/>
      <polygon fill="#000000" stroke="#000000" points="328.346,-606.5001 338.346,-603 328.3459,-599.5001 328.346,-606.5001"/>
    </g>
    <!-- 4&#45;&gt;6 -->
    <g id="edge4" class="edge">
      <title>4-&gt;6</title>
      <path fill="none" stroke="#000000" d="M176.5,-539.8857C176.5,-518.683 176.5,-496.0644 176.5,-478.8207"/>
      <polygon fill="#000000" stroke="#000000" points="180.0001,-478.3342 176.5,-468.3342 173.0001,-478.3343 180.0001,-478.3342"/>
    </g>
    <!-- 5&#45;&gt;7 -->
    <!-- 6&#45;&gt;7 -->
    <g id="edge5" class="edge">
      <title>6-&gt;7</title>
      <path fill="none" stroke="#000000" d="M302.821,-450C311.202,-450 319.6641,-450 328.0915,-450"/>
      <polygon fill="#000000" stroke="#000000" points="328.346,-453.5001 338.346,-450 328.3459,-446.5001 328.346,-453.5001"/>
    </g>
    <!-- 6&#45;&gt;8 -->
    <g id="edge6" class="edge">
      <title>6-&gt;8</title>
      <path fill="none" stroke="#000000" d="M176.5,-431.4582C176.5,-423.9583 176.5,-415.1245 176.5,-406.8217"/>
      <polygon fill="#000000" stroke="#000000" points="180.0001,-406.7291 176.5,-396.7292 173.0001,-406.7292 180.0001,-406.7291"/>
    </g>
    <!-- 7&#45;&gt;9 -->
    <!-- 8&#45;&gt;9 -->
    <g id="edge7" class="edge">
      <title>8-&gt;9</title>
      <path fill="none" stroke="#000000" d="M302.821,-378C311.202,-378 319.6641,-378 328.0915,-378"/>
      <polygon fill="#000000" stroke="#000000" points="328.346,-381.5001 338.346,-378 328.3459,-374.5001 328.346,-381.5001"/>
    </g>
    <!-- 8&#45;&gt;10 -->
    <g id="edge8" class="edge">
      <title>8-&gt;10</title>
      <path fill="none" stroke="#000000" d="M176.5,-359.5119C176.5,-336.9171 176.5,-298.4257 176.5,-271.9052"/>
      <polygon fill="#000000" stroke="#000000" points="180.0001,-271.698 176.5,-261.698 173.0001,-271.6981 180.0001,-271.698"/>
    </g>
    <!-- 9&#45;&gt;11 -->
    <!-- 10&#45;&gt;12 -->
    <g id="edge10" class="edge">
      <title>10-&gt;12</title>
      <path fill="none" stroke="#000000" d="M176.5,-224.5338C176.5,-195.9944 176.5,-140.2946 176.5,-100.3103"/>
      <polygon fill="#000000" stroke="#000000" points="180.0001,-100.2541 176.5,-90.2541 173.0001,-100.2542 180.0001,-100.2541"/>
    </g>
    <!-- 10&#45;&gt;C -->
    <g id="edge9" class="edge">
      <title>10-&gt;C</title>
      <path fill="none" stroke="#000000" d="M302.821,-243C311.202,-243 319.6641,-243 328.0915,-243"/>
      <polygon fill="#000000" stroke="#000000" points="328.346,-246.5001 338.346,-243 328.3459,-239.5001 328.346,-246.5001"/>
    </g>
    <!-- identification -->
    <g id="node1" class="node">
      <title>identification</title>
      <g id="a_node1">
        <a xlink:title="Blue identification box">
          <path fill="#bcd2ee" stroke="#bcd2ee" d="M19.3333,-666C19.3333,-666 9.6667,-666 9.6667,-666 4.8333,-666 0,-661.1666 0,-656.3333 0,-656.3333 0,-549.6666 0,-549.6666 0,-544.8333 4.8333,-540 9.6667,-540 9.6667,-540 19.3333,-540 19.3333,-540 24.1667,-540 29,-544.8333 29,-549.6666 29,-549.6666 29,-656.3333 29,-656.3333 29,-661.1666 24.1667,-666 19.3333,-666"/>
          <text text-anchor="middle" x="599.4" y="16.5" font-family="Helvetica,sans-Serif" font-size="12.00" fill="#000000" transform="rotate(-90)">Identification</text>
        </a>
      </g>
    </g>
    <!-- screening -->
    <g id="node2" class="node">
      <title>screening</title>
      <g id="a_node2">
        <a xlink:title="Blue screening box">
          <path fill="#bcd2ee" stroke="#bcd2ee" d="M19.3333,-528C19.3333,-528 9.6667,-528 9.6667,-528 4.8333,-528 0,-523.1667 0,-518.3333 0,-518.3333 0,-195.6667 0,-195.6667 0,-190.8333 4.8333,-186 9.6667,-186 9.6667,-186 19.3333,-186 19.3333,-186 24.1667,-186 29,-190.8333 29,-195.6667 29,-195.6667 29,-518.3333 29,-518.3333 29,-523.1667 24.1667,-528 19.3333,-528"/>
          <text text-anchor="middle" x="353.4" y="16.5" font-family="Helvetica,sans-Serif" font-size="12.00" fill="#000000" transform="rotate(-90)">Screening</text>
        </a>
      </g>
    </g>
    <!-- included -->
    <g id="node3" class="node">
      <title>included</title>
      <g id="a_node3">
        <a xlink:title="Blue included box">
          <path fill="#bcd2ee" stroke="#bcd2ee" d="M19.3333,-108C19.3333,-108 9.6667,-108 9.6667,-108 4.8333,-108 0,-103.1667 0,-98.3333 0,-98.3333 0,-9.6667 0,-9.6667 0,-4.8333 4.8333,0 9.6667,0 9.6667,0 19.3333,0 19.3333,0 24.1667,0 29,-4.8333 29,-9.6667 29,-9.6667 29,-98.3333 29,-98.3333 29,-103.1667 24.1667,-108 19.3333,-108"/>
          <text text-anchor="middle" x="50.4" y="16.5" font-family="Helvetica,sans-Serif" font-size="12.00" fill="#000000" transform="rotate(-90)">Included</text>
        </a>
      </g>
    </g>
    <!-- 3 -->
    <g id="node4" class="node">
      <title>3</title>
      <g id="a_node4">
        <a xlink:title="Yellow title box; Identification of new studies via databases and registers">
          <path fill="#ffc125" stroke="#ffc125" d="M580.8333,-730.9C580.8333,-730.9 60.1667,-730.9 60.1667,-730.9 55.3333,-730.9 50.5,-726.0667 50.5,-721.2333 50.5,-721.2333 50.5,-711.5667 50.5,-711.5667 50.5,-706.7333 55.3333,-701.9 60.1667,-701.9 60.1667,-701.9 580.8333,-701.9 580.8333,-701.9 585.6667,-701.9 590.5,-706.7333 590.5,-711.5667 590.5,-711.5667 590.5,-721.2333 590.5,-721.2333 590.5,-726.0667 585.6667,-730.9 580.8333,-730.9"/>
          <text text-anchor="middle" x="320.5" y="-712.8" font-family="Helvetica,sans-Serif" font-size="12.00" fill="#000000">Identification of new studies via databases and registers</text>
        </a>
      </g>
    </g>
    <!-- 4 -->
    <g id="node5" class="node">
      <title>4</title>
      <g id="a_node5">
        <a xlink:title="Records identified from: Databases and Registers">
          <polygon fill="none" stroke="#000000" points="302.5,-666 50.5,-666 50.5,-540 302.5,-540 302.5,-666"/>
          <text text-anchor="middle" x="176.5" y="-642.6" font-family="Helvetica,sans-Serif" font-size="12.00" fill="#000000">Records identified from:</text>
          <text text-anchor="middle" x="176.5" y="-628.2" font-family="Helvetica,sans-Serif" font-size="12.00" fill="#000000">Databases (n = 4):</text>
          <text text-anchor="middle" x="176.5" y="-613.8" font-family="Helvetica,sans-Serif" font-size="12.00" fill="#000000">MEDLINE(PubMed) (n = 108)</text>
          <text text-anchor="middle" x="176.5" y="-599.4" font-family="Helvetica,sans-Serif" font-size="12.00" fill="#000000">CINAHL (n = 41)</text>
          <text text-anchor="middle" x="176.5" y="-585" font-family="Helvetica,sans-Serif" font-size="12.00" fill="#000000">Cochrane Library (n = 68)</text>
          <text text-anchor="middle" x="176.5" y="-570.6" font-family="Helvetica,sans-Serif" font-size="12.00" fill="#000000">EMBASE (n = 21)</text>
          <text text-anchor="middle" x="176.5" y="-556.2" font-family="Helvetica,sans-Serif" font-size="12.00" fill="#000000">Registers (n = 0)</text>
        </a>
      </g>
    </g>
    <!-- 5 -->
    <g id="node6" class="node">
      <title>5</title>
      <g id="a_node6">
        <a xlink:title="Duplicate records">
          <polygon fill="none" stroke="#000000" points="590.5,-643 338.5,-643 338.5,-563 590.5,-563 590.5,-643"/>
          <text text-anchor="middle" x="464.5" y="-628.2" font-family="Helvetica,sans-Serif" font-size="12.00" fill="#000000">Records removed before screening:</text>
          <text text-anchor="middle" x="464.5" y="-613.8" font-family="Helvetica,sans-Serif" font-size="12.00" fill="#000000">Duplicate records (n = 21)</text>
          <text text-anchor="middle" x="464.5" y="-599.4" font-family="Helvetica,sans-Serif" font-size="12.00" fill="#000000">Records marked as ineligible by automation</text>
          <text text-anchor="middle" x="464.5" y="-585" font-family="Helvetica,sans-Serif" font-size="12.00" fill="#000000">tools (n = 0)</text>
          <text text-anchor="middle" x="464.5" y="-570.6" font-family="Helvetica,sans-Serif" font-size="12.00" fill="#000000">Records removed for other reasons (n = 0)</text>
        </a>
      </g>
    </g>
    <!-- 6 -->
    <g id="node7" class="node">
      <title>6</title>
      <g id="a_node7">
        <a xlink:title="Records screened (databases and registers)">
          <polygon fill="none" stroke="#000000" points="302.5,-468.3005 50.5,-468.3005 50.5,-431.6994 302.5,-431.6994 302.5,-468.3005"/>
          <text text-anchor="middle" x="176.5" y="-453.6" font-family="Helvetica,sans-Serif" font-size="12.00" fill="#000000">Records screened</text>
          <text text-anchor="middle" x="176.5" y="-439.2" font-family="Helvetica,sans-Serif" font-size="12.00" fill="#000000">(n = 0)</text>
        </a>
      </g>
    </g>
    <!-- 7 -->
    <g id="node8" class="node">
      <title>7</title>
      <g id="a_node8">
        <a xlink:title="Records excluded (databases and registers)">
          <polygon fill="none" stroke="#000000" points="590.5,-468.3005 338.5,-468.3005 338.5,-431.6994 590.5,-431.6994 590.5,-468.3005"/>
          <text text-anchor="middle" x="464.5" y="-453.6" font-family="Helvetica,sans-Serif" font-size="12.00" fill="#000000">Records excluded</text>
          <text text-anchor="middle" x="464.5" y="-439.2" font-family="Helvetica,sans-Serif" font-size="12.00" fill="#000000">(n = 0)</text>
        </a>
      </g>
    </g>
    <!-- 8 -->
    <g id="node9" class="node">
      <title>8</title>
      <g id="a_node9">
        <a xlink:title="Reports sought for retrieval (databases and registers)">
          <polygon fill="none" stroke="#000000" points="302.5,-396.3005 50.5,-396.3005 50.5,-359.6994 302.5,-359.6994 302.5,-396.3005"/>
          <text text-anchor="middle" x="176.5" y="-381.6" font-family="Helvetica,sans-Serif" font-size="12.00" fill="#000000">Reports sought for retrieval</text>
          <text text-anchor="middle" x="176.5" y="-367.2" font-family="Helvetica,sans-Serif" font-size="12.00" fill="#000000">(n = 0)</text>
        </a>
      </g>
    </g>
    <!-- 9 -->
    <g id="node10" class="node">
      <title>9</title>
      <g id="a_node10">
        <a xlink:title="Reports not retrieved (databases and registers)">
          <polygon fill="none" stroke="#000000" points="590.5,-396.3005 338.5,-396.3005 338.5,-359.6994 590.5,-359.6994 590.5,-396.3005"/>
          <text text-anchor="middle" x="464.5" y="-381.6" font-family="Helvetica,sans-Serif" font-size="12.00" fill="#000000">Reports not retrieved</text>
          <text text-anchor="middle" x="464.5" y="-367.2" font-family="Helvetica,sans-Serif" font-size="12.00" fill="#000000">(n = 0)</text>
        </a>
      </g>
    </g>
    <!-- 10 -->
    <g id="node11" class="node">
      <title>10</title>
      <g id="a_node11">
        <a xlink:title="Reports assessed for eligibility (databases and registers)">
          <polygon fill="none" stroke="#000000" points="302.5,-261.3005 50.5,-261.3005 50.5,-224.6995 302.5,-224.6995 302.5,-261.3005"/>
          <text text-anchor="middle" x="176.5" y="-246.6" font-family="Helvetica,sans-Serif" font-size="12.00" fill="#000000">Reports assessed for eligibility</text>
          <text text-anchor="middle" x="176.5" y="-232.2" font-family="Helvetica,sans-Serif" font-size="12.00" fill="#000000">(n = 0)</text>
        </a>
      </g>
    </g>
    <!-- 11 -->
    <g id="node12" class="node">
      <title>11</title>
      <g id="a_node12">
        <a xlink:title="Reports excluded (databases and registers)">
          <polygon fill="#ffffff" stroke="#000000" points="590.5,-311.6006 338.5,-311.6006 338.5,-174.3994 590.5,-174.3994 590.5,-311.6006"/>
          <text text-anchor="middle" x="464.5" y="-297" font-family="Helvetica,sans-Serif" font-size="12.00" fill="#000000">Reports excluded:</text>
          <text text-anchor="middle" x="464.5" y="-282.6" font-family="Helvetica,sans-Serif" font-size="12.00" fill="#000000">Wrong intervention (not CMM) (n = NA)</text>
          <text text-anchor="middle" x="464.5" y="-268.2" font-family="Helvetica,sans-Serif" font-size="12.00" fill="#000000">Wrong outcomes (see protocol) (n = NA)</text>
          <text text-anchor="middle" x="464.5" y="-253.8" font-family="Helvetica,sans-Serif" font-size="12.00" fill="#000000">Wrong language (not English) (n = NA)</text>
          <text text-anchor="middle" x="464.5" y="-239.4" font-family="Helvetica,sans-Serif" font-size="12.00" fill="#000000">Wrong country/setting (not USA) (n = NA)</text>
          <text text-anchor="middle" x="464.5" y="-225" font-family="Helvetica,sans-Serif" font-size="12.00" fill="#000000">Wrong population (not</text>
          <text text-anchor="middle" x="464.5" y="-210.6" font-family="Helvetica,sans-Serif" font-size="12.00" fill="#000000">Hypertensive/pharmacist) (n = NA)</text>
          <text text-anchor="middle" x="464.5" y="-196.2" font-family="Helvetica,sans-Serif" font-size="12.00" fill="#000000">Wrong study type (see protocol) (n = NA)</text>
          <text text-anchor="middle" x="464.5" y="-181.8" font-family="Helvetica,sans-Serif" font-size="12.00" fill="#000000">Wrong period (not after 2010) (n = NA)</text>
        </a>
      </g>
    </g>
    <!-- 12 -->
    <g id="node13" class="node">
      <title>12</title>
      <g id="a_node13">
        <a xlink:title="New studies included in review">
          <polygon fill="none" stroke="#000000" points="302.5,-90 50.5,-90 50.5,-18 302.5,-18 302.5,-90"/>
          <text text-anchor="middle" x="176.5" y="-72" font-family="Helvetica,sans-Serif" font-size="12.00" fill="#000000">New studies included in review</text>
          <text text-anchor="middle" x="176.5" y="-57.6" font-family="Helvetica,sans-Serif" font-size="12.00" fill="#000000">(n = 0)</text>
          <text text-anchor="middle" x="176.5" y="-43.2" font-family="Helvetica,sans-Serif" font-size="12.00" fill="#000000">Reports of new included studies</text>
          <text text-anchor="middle" x="176.5" y="-28.8" font-family="Helvetica,sans-Serif" font-size="12.00" fill="#000000">(n = 0)</text>
        </a>
      </g>
    </g>
    <!-- C -->
  </g>
</svg>
