<svg xmlns="http://www.w3.org/2000/svg" data-name="Layer 1" viewBox="0 0 512 512"><path fill="#fed44a" d="M107.006 30.55v17.36h370.4V30.55a4 4 0 0 0-4-4h-362.4a4 4 0 0 0-4 4Z"/><path fill="#2ca68f" d="M119.426 245.991s-9 13.32-2.88 33.12c0 0-9 60.48-13.32 73.44s-29.28 83.52-29.28 83.52l45.48 12 30.42-101.04-2.94 101.04h46.32s1.2-152.341-10.32-184.65l-11.205-12.5-1.634 1.55-5.901-6.48Z"/><path d="M157.946 128.811s15.3.54 11.52 9.18-13.68 3.06-13.68 3.06 1.98 15.12-6.3 8.82-5.94 9.36 1.44 8.64c0 0 7.02 14.76 1.98 20.16s-12.42.72-14.22-4.86c0 0-10.44 2.88-10.8-9s-4.5-13.14 1.44-17.46 10.26-24.84 28.62-18.54Z"/><path d="M166.82 179.892c-4.432 0-12.282-3.573-12.614-3.724a.5.5 0 0 1 .416-.91c.08.037 7.984 3.634 12.198 3.634.527 0 .653-.1.654-.101-.025-.584-2.895-2.924-6.312-5.058-3.04-.913-1.604-6.81-1.54-7.063a.498.498 0 0 1 .461-.378c5.552-.255 9.419-2.13 11.493-5.574 5.094-8.458-2.026-23.773-2.098-23.926a.5.5 0 0 1 .904-.428c.305.648 7.421 15.95 2.052 24.868-2.209 3.668-6.22 5.699-11.925 6.039-.352 1.665-.703 5.067.986 5.517a.52.52 0 0 1 .135.059c2.717 1.691 7.21 4.755 6.777 6.267-.222.778-1.25.778-1.587.778Z"/><path d="M170.066 252.972h-.018a.502.502 0 0 1-.351-.163l-5.752-6.318h-50.639a.5.5 0 0 1-.49-.595c8.203-42.088 26.164-70.095 26.345-70.374a.5.5 0 0 1 .839.545c-.18.276-17.87 27.87-26.086 69.424h50.252a.502.502 0 0 1 .37.163l5.557 6.104 22.442-21.28-13.907-16.017a.5.5 0 0 1-.078-.534c.034-.073 3.28-7.404.378-12.696-3.017-5.502-10.884-17.88-10.964-18.004a.5.5 0 0 1 .34-.762l18.086-3.044-23.534-4.623a.5.5 0 1 1 .192-.98l26.225 5.15a.5.5 0 0 1-.013.984l-20.049 3.374c1.656 2.616 7.957 12.617 10.594 17.425 2.832 5.166.398 11.797-.217 13.29l14.016 16.143a.501.501 0 0 1-.034.691l-23.16 21.96a.502.502 0 0 1-.344.137Z"/><path d="M164.167 246.491a.499.499 0 0 1-.415-.219 164.375 164.375 0 0 1-9.789-16.443c-4.14-8.55-4.6-31.285-4.617-32.249a.5.5 0 0 1 .49-.509h.01a.5.5 0 0 1 .5.492c.005.233.473 23.477 4.518 31.83a163.105 163.105 0 0 0 9.716 16.317.5.5 0 0 1-.414.781ZM179.006 214.633a.5.5 0 0 1-.449-.28l-10.08-20.521a.5.5 0 1 1 .898-.441l10.08 20.521a.5.5 0 0 1-.449.72ZM168.926 246.491a.5.5 0 0 1-.356-.851l18.36-18.54a.5.5 0 1 1 .712.703l-18.36 18.54a.5.5 0 0 1-.356.148ZM149.846 347.034l-5.58-55.32-1.069 77.404 6.649-22.084zM200.524 287.669c-1.85 0-3.809-.936-5.836-2.788a30.414 30.414 0 0 1-8.97-15.197c-.51-2.215-3.19-5.932-3.217-5.97a.5.5 0 1 1 .81-.586c.115.158 2.826 3.92 3.382 6.331a29.387 29.387 0 0 0 8.67 14.684c2.057 1.88 3.99 2.72 5.732 2.489a4.938 4.938 0 0 0 3.23-2.03.504.504 0 0 1 .576-.206c2.871.936 5.127.893 6.705-.134a5.314 5.314 0 0 0 2.183-3.581.5.5 0 0 1 .762-.373c1.952 1.22 3.594 1.539 4.88.945 2.26-1.04 2.815-4.58 2.82-4.615a.5.5 0 0 1 .348-.404c2.651-.817 4.026-2.245 4.201-4.366.727-8.779-18.484-25.333-21.078-26.63-3.39-1.695-14.178-12.224-14.636-12.671a.5.5 0 1 1 .7-.715c.11.108 11.131 10.866 14.383 12.492 2.759 1.38 22.405 18.226 21.628 27.606-.204 2.458-1.755 4.188-4.613 5.146-.202.983-.995 3.985-3.331 5.064-1.464.675-3.216.46-5.215-.641a6.1 6.1 0 0 1-2.487 3.582c-1.775 1.155-4.201 1.273-7.214.355a5.82 5.82 0 0 1-3.697 2.165 5.291 5.291 0 0 1-.716.048Z"/><path d="M222.747 277.21a.501.501 0 0 1-.423-.23l-6.84-10.74a.5.5 0 1 1 .844-.537l6.84 10.74a.5.5 0 0 1-.421.768ZM214.287 281.231a.5.5 0 0 1-.412-.215l-6.48-9.39a.5.5 0 0 1 .823-.568l6.48 9.39a.5.5 0 0 1-.128.695.494.494 0 0 1-.283.088ZM204.747 285.371a.499.499 0 0 1-.414-.218l-4.68-6.84a.5.5 0 1 1 .826-.564l4.68 6.84a.5.5 0 0 1-.412.782ZM148.887 279.318c-1.848 0-3.934-.16-5.873-.31a37.485 37.485 0 0 0-5.65-.198 71.767 71.767 0 0 1-9.208.002.5.5 0 0 1-.469-.53.507.507 0 0 1 .529-.469 71.78 71.78 0 0 0 9.033.002 38.12 38.12 0 0 1 5.84.197c3.353.258 7.152.547 9.203-.02a.5.5 0 1 1 .268.962 14.484 14.484 0 0 1-3.673.364Z"/><path fill="#fed44a" d="M149.846 448.071v30.03a4.59 4.59 0 0 0 4.59 4.59h69.21v-2.605a5.344 5.344 0 0 0-2.762-4.679l-28.558-15.756v-11.58ZM116.26 453.923l1.983-6.164-41.133-10.853-6.94 21.567a4.59 4.59 0 0 0 2.963 5.776l65.883 21.201.798-2.48a5.344 5.344 0 0 0-1.196-5.3Z"/><path d="M168.232 155.278a5.673 5.673 0 0 1-2.356-.642.5.5 0 1 1 .46-.889c.647.335 2.045.831 2.693.297.492-.401.415-1.408.298-2.935a20.887 20.887 0 0 0-.82-4.216 36.17 36.17 0 0 0-.386-1.212c-.351-1.06-.563-1.699-.153-2.324.433-.66 1.326-.926 2.736-.825a.5.5 0 0 1 .46.537.495.495 0 0 1-.536.461c-1.307-.107-1.704.193-1.824.375-.139.213-.026.58.266 1.46.115.347.25.755.395 1.244a21.856 21.856 0 0 1 .86 4.424c.14 1.84.233 3.055-.663 3.786a2.215 2.215 0 0 1-1.43.46ZM164.816 159.41a3.477 3.477 0 0 1-2.185-.68 3.857 3.857 0 0 1-1.344-2.722.5.5 0 0 1 .481-.516.51.51 0 0 1 .518.482 2.88 2.88 0 0 0 .963 1.968 3.226 3.226 0 0 0 2.746.322.5.5 0 0 1 .222.974 6.317 6.317 0 0 1-1.401.172ZM159.836 146.05a.5.5 0 0 1-.387-.815c.023-.028 2.31-2.75 6.195-.76a.5.5 0 0 1-.456.891c-3.145-1.614-4.894.416-4.966.504a.5.5 0 0 1-.386.18Z"/><ellipse cx="164.066" cy="149.016" rx=".9" ry="1.305" transform="rotate(-9.553 164.066 149.016)"/><ellipse cx="171.309" cy="147.261" rx=".9" ry="1.305" transform="rotate(-9.553 171.309 147.261)"/><path d="M224.13 194.112a2.996 2.996 0 0 1-.693-.084 6.527 6.527 0 0 1-2.003-.854 4.56 4.56 0 0 1-1.92-2.881 6.803 6.803 0 0 1-2.035 1.76 3.527 3.527 0 0 1-1.337.38c-.118.017-.235.033-.349.053a2.132 2.132 0 0 1-2.116-.449 7.737 7.737 0 0 1-1.286-1.255 6.872 6.872 0 0 1-1.032-3.6 35.382 35.382 0 0 1 .354-8.757c.016-.096.045-.232.081-.396.377-1.742.264-2.166.162-2.263-.28.025-1.748.302-3.043.546a32.53 32.53 0 0 1-3.363.561v.002l-.058-.001a1.008 1.008 0 0 1-.177-.013q-.447-.025-.879-.045a13.922 13.922 0 0 1-6.025-1.216l-.403-.206a23.302 23.302 0 0 1-3.035-1.742c-1.526-1.093-3.076-3.511-1.741-5.462 1.623-2.37 4.654-1.543 6.66-.993l.618.175a12.376 12.376 0 0 0 1.954.453 24.743 24.743 0 0 0 2.725.167c.242.003.5.013.768.024 1.296.051 2.769.109 3.658-.58a12.492 12.492 0 0 0 1.202-1.11l.41-.41a13.71 13.71 0 0 1 2.364-1.842l.388-.247c1.318-.848 3.123-2.004 4.789-1.255a6.15 6.15 0 0 1 .838.505c.87.582 1.332.809 1.614.516a2.743 2.743 0 0 0 .435-.712 5.769 5.769 0 0 1 .284-.538 4.816 4.816 0 0 1 1.4-1.394 4.34 4.34 0 0 1 3.857-.405 4.872 4.872 0 0 1 1.035.658c.428.32 1.22.911 1.47.74a1.292 1.292 0 0 0 .185-.31 2.691 2.691 0 0 1 .198-.353 5.052 5.052 0 0 1 .54-.616 6.93 6.93 0 0 0 .28-.295l.13-.15a3.146 3.146 0 0 1 1.665-1.205l.152-.035a3.63 3.63 0 0 1 2.118-.061 5.754 5.754 0 0 1 1.693 1.084 3.938 3.938 0 0 1 .633.787c.117.175.335.5.431.524 0 0 .062-.002.204-.116l.226-.181a4.274 4.274 0 0 1 3.127-1.347 4.711 4.711 0 0 1 3.646 2.522c.603 1.211 3.206 9.189 3.129 12.088-.046 1.732-1.399 10.65-2.231 12.164a2.607 2.607 0 0 1-2.08 1.619c-1.376.088-2.603-1.466-3.283-2.449a9.913 9.913 0 0 0-.114.412 4.633 4.633 0 0 1-.238.746 14.12 14.12 0 0 1-1.09 2.052 8.697 8.697 0 0 1-3.042 2.448 4.29 4.29 0 0 1-4.127.313 3.916 3.916 0 0 1-1.72-1.782 6.971 6.971 0 0 1-1.371 2.007 7.851 7.851 0 0 1-3.033 1.932 4.578 4.578 0 0 1-1.6.372Zm-4.353-5.748a.458.458 0 0 1 .08.007.499.499 0 0 1 .417.444c.17 1.745.725 2.895 1.698 3.517a5.574 5.574 0 0 0 1.694.724 2.783 2.783 0 0 0 1.724-.255 6.918 6.918 0 0 0 2.668-1.704 8.058 8.058 0 0 0 1.8-3.393l.01-.03a.5.5 0 0 1 .953.302l-.007.022a2.769 2.769 0 0 0 1.461 2.679 3.355 3.355 0 0 0 3.26-.302 7.571 7.571 0 0 0 2.666-2.123 13.16 13.16 0 0 0 1.002-1.898 3.79 3.79 0 0 0 .18-.582 2.509 2.509 0 0 1 .773-1.51.499.499 0 0 1 .684.12c.042.059.102.147.176.259.4.602 1.608 2.422 2.653 2.422l.037-.001c.434-.018.853-.39 1.245-1.102.64-1.163 2.055-9.755 2.107-11.709.072-2.701-2.459-10.48-3.024-11.615a3.705 3.705 0 0 0-2.869-1.976 3.527 3.527 0 0 0-2.38 1.131l-.23.187a1.269 1.269 0 0 1-.982.323c-.524-.081-.835-.547-1.11-.957a3.15 3.15 0 0 0-.463-.593 4.877 4.877 0 0 0-1.397-.904 2.93 2.93 0 0 0-1.525.104l-.157.036a2.284 2.284 0 0 0-1.13.885l-.134.155c-.103.117-.21.227-.32.337a4.148 4.148 0 0 0-.436.491 1.71 1.71 0 0 0-.119.221 1.716 1.716 0 0 1-.502.68c-.841.601-1.843-.15-2.647-.753a4.623 4.623 0 0 0-.794-.525 3.382 3.382 0 0 0-2.922.288 3.84 3.84 0 0 0-1.127 1.102 4.888 4.888 0 0 0-.235.448 3.594 3.594 0 0 1-.614.97c-.915.954-2.105.15-2.892-.379a5.423 5.423 0 0 0-.693-.423c-1.17-.529-2.649.42-3.836 1.184l-.397.254a12.741 12.741 0 0 0-2.197 1.709l-.4.4a13.497 13.497 0 0 1-1.3 1.197c-1.176.909-2.913.841-4.308.787-.259-.01-.508-.02-.742-.023a25.486 25.486 0 0 1-2.833-.175 12.995 12.995 0 0 1-2.11-.484l-.596-.169c-1.949-.533-4.36-1.193-5.58.59-.943 1.38.337 3.253 1.498 4.086a22.602 22.602 0 0 0 2.906 1.662l.406.207a12.963 12.963 0 0 0 5.618 1.108c.368.018.742.037 1.126.06a.426.426 0 0 1 .071.01c.496-.075 1.893-.34 3.045-.557 1.75-.33 2.832-.532 3.1-.556a.994.994 0 0 1 .88.332c.55.625.333 1.891.064 3.135-.031.146-.058.266-.072.35a34.345 34.345 0 0 0-.344 8.503 6.047 6.047 0 0 0 .827 3.077 6.798 6.798 0 0 0 1.122 1.087c.486.392.613.368 1.314.244.126-.022.255-.041.384-.059a2.718 2.718 0 0 0 .971-.253 5.447 5.447 0 0 0 2.348-2.53.5.5 0 0 1 .456-.296Z"/><path d="M220.965 185.967a.499.499 0 0 1-.47-.667l.091-.26a14.272 14.272 0 0 0 .861-3.154c.084-.68.146-1.365.208-2.05.073-.803.145-1.607.252-2.404a21.94 21.94 0 0 0 .218-4.184 22.58 22.58 0 0 0-1.305-5.508 84.53 84.53 0 0 1-.446-1.401.5.5 0 1 1 .956-.293c.137.451.288.913.441 1.385a23.288 23.288 0 0 1 1.352 5.76 22.863 22.863 0 0 1-.225 4.373c-.105.784-.176 1.574-.248 2.364-.063.694-.126 1.39-.21 2.08a15.225 15.225 0 0 1-.912 3.367l-.091.259a.5.5 0 0 1-.472.333ZM229.882 185.643a.492.492 0 0 1-.296-.098.5.5 0 0 1-.106-.7 3.295 3.295 0 0 0 .41-1.056c.04-.145.079-.29.122-.428.063-.204.13-.407.198-.611a13.267 13.267 0 0 0 .437-1.513 21.959 21.959 0 0 0 .337-3.663l.009-.3a28.22 28.22 0 0 0-.044-3.583 54.992 54.992 0 0 0-1.283-6.816c-.174-.75-.346-1.493-.505-2.225a.5.5 0 0 1 .978-.212c.157.727.329 1.466.502 2.211a55.682 55.682 0 0 1 1.303 6.943 29.058 29.058 0 0 1 .049 3.71l-.01.302a22.95 22.95 0 0 1-.355 3.833 14.042 14.042 0 0 1-.468 1.627c-.066.2-.132.397-.193.594-.04.126-.075.258-.11.392a4.084 4.084 0 0 1-.572 1.39.498.498 0 0 1-.403.203ZM239.822 183.458a.482.482 0 0 1-.128-.017.5.5 0 0 1-.356-.61 23.288 23.288 0 0 0 .725-7.984 39.646 39.646 0 0 0-2.524-9.686l-.41-1.169a.5.5 0 1 1 .945-.328l.408 1.165a41.007 41.007 0 0 1 2.577 9.93 24.282 24.282 0 0 1-.754 8.326.5.5 0 0 1-.483.373ZM222.746 261.111a.5.5 0 0 1-.083-.993l74.281-12.502a2.503 2.503 0 0 0 2.051-2.88l-13.204-78.493a2.502 2.502 0 0 0-2.88-2.05l-36.012 6.062a.5.5 0 1 1-.166-.986l36.011-6.063a3.506 3.506 0 0 1 4.033 2.871l13.204 78.493a3.501 3.501 0 0 1-2.87 4.033l-74.282 12.501a.489.489 0 0 1-.083.007ZM168.386 183.46a.5.5 0 0 1-.083-.992l44.02-7.41a.5.5 0 1 1 .166.987l-44.02 7.41a.49.49 0 0 1-.083.006Z"/><path d="M473.406 207.21h-180.3a.5.5 0 0 1 0-1h180.3a3.504 3.504 0 0 0 3.5-3.5V30.55a3.504 3.504 0 0 0-3.5-3.5h-362.4a3.504 3.504 0 0 0-3.5 3.5v172.16a3.504 3.504 0 0 0 3.5 3.5h13.63a.5.5 0 0 1 0 1h-13.63a4.505 4.505 0 0 1-4.5-4.5V30.55a4.505 4.505 0 0 1 4.5-4.5h362.4a4.505 4.505 0 0 1 4.5 4.5v172.16a4.505 4.505 0 0 1-4.5 4.5Z"/><rect width="102.28" height="81.605" x="335.283" y="169.042" fill="#fed44a" rx="4"/><path d="M321.166 133.021h-5a.5.5 0 0 1 0-1h5a.5.5 0 0 1 0 1Zm-10 0h-5a.5.5 0 0 1 0-1h5a.5.5 0 0 1 0 1Zm-10 0h-5a.5.5 0 0 1 0-1h5a.5.5 0 0 1 0 1Zm-10 0h-5a.5.5 0 0 1 0-1h5a.5.5 0 0 1 0 1Zm-10 0h-5a.5.5 0 0 1 0-1h5a.5.5 0 0 1 0 1Zm-10 0h-5a.5.5 0 0 1 0-1h5a.5.5 0 0 1 0 1Zm-10 0h-5a.5.5 0 0 1 0-1h5a.5.5 0 0 1 0 1Zm-10 0h-5a.5.5 0 0 1 0-1h5a.5.5 0 0 1 0 1Zm-10 0h-5a.5.5 0 0 1 0-1h5a.5.5 0 0 1 0 1Zm-10 0h-5a.5.5 0 0 1 0-1h5a.5.5 0 0 1 0 1Zm-10 0h-5a.5.5 0 0 1 0-1h5a.5.5 0 0 1 0 1Zm-10 0h-5a.5.5 0 0 1 0-1h5a.5.5 0 0 1 0 1Zm111.165-.171a.5.5 0 0 1-.145-.979 3.494 3.494 0 0 0 2.479-3.259.5.5 0 0 1 .5-.487h.013a.5.5 0 0 1 .487.513 4.493 4.493 0 0 1-3.188 4.19.505.505 0 0 1-.146.022Zm-121.143-.03a.493.493 0 0 1-.157-.026 4.491 4.491 0 0 1-3.085-4.267.5.5 0 0 1 .5-.5.5.5 0 0 1 .5.498 3.493 3.493 0 0 0 2.4 3.32.5.5 0 0 1-.158.974Zm123.978-8.695a.5.5 0 0 1-.5-.5v-5a.5.5 0 0 1 1 0v5a.5.5 0 0 1-.5.5Zm-126.72-.098a.5.5 0 0 1-.5-.5v-5a.5.5 0 0 1 1 0v5a.5.5 0 0 1-.5.5Zm126.72-9.902a.5.5 0 0 1-.5-.5v-5a.5.5 0 0 1 1 0v5a.5.5 0 0 1-.5.5Zm-126.72-.098a.5.5 0 0 1-.5-.5v-5a.5.5 0 0 1 1 0v5a.5.5 0 0 1-.5.5Zm126.72-9.902a.5.5 0 0 1-.5-.5v-5a.5.5 0 0 1 1 0v5a.5.5 0 0 1-.5.5Zm-126.72-.098a.5.5 0 0 1-.5-.5v-5a.5.5 0 0 1 1 0v5a.5.5 0 0 1-.5.5Zm126.72-9.902a.5.5 0 0 1-.5-.5v-5a.5.5 0 0 1 1 0v5a.5.5 0 0 1-.5.5Zm-126.72-.098a.5.5 0 0 1-.5-.5v-5a.5.5 0 0 1 1 0v5a.5.5 0 0 1-.5.5Zm126.72-9.902a.5.5 0 0 1-.5-.5v-5a.5.5 0 0 1 1 0v5a.5.5 0 0 1-.5.5Zm-126.72-.098a.5.5 0 0 1-.5-.5v-5a.5.5 0 0 1 1 0v5a.5.5 0 0 1-.5.5Zm126.72-9.902a.5.5 0 0 1-.5-.5v-1.903a3.481 3.481 0 0 0-.997-2.447.5.5 0 1 1 .715-.699 4.47 4.47 0 0 1 1.282 3.146v1.903a.5.5 0 0 1-.5.5Zm-126.72-.098a.5.5 0 0 1-.5-.5v-1.805a4.466 4.466 0 0 1 1.36-3.223.5.5 0 0 1 .697.717 3.47 3.47 0 0 0-1.057 2.506v1.805a.5.5 0 0 1-.5.5Zm120.908-5.805h-5a.5.5 0 0 1 0-1h5a.5.5 0 0 1 0 1Zm-10 0h-5a.5.5 0 0 1 0-1h5a.5.5 0 0 1 0 1Zm-10 0h-5a.5.5 0 0 1 0-1h5a.5.5 0 0 1 0 1Zm-10 0h-5a.5.5 0 0 1 0-1h5a.5.5 0 0 1 0 1Zm-10 0h-5a.5.5 0 0 1 0-1h5a.5.5 0 0 1 0 1Zm-10 0h-5a.5.5 0 0 1 0-1h5a.5.5 0 0 1 0 1Zm-10 0h-4.999a.5.5 0 0 1 0-1h5a.5.5 0 0 1 0 1Zm-9.999 0h-5a.5.5 0 0 1 0-1h5a.5.5 0 0 1 0 1Zm-10 0h-5a.5.5 0 0 1 0-1h5a.5.5 0 0 1 0 1Zm-10 0h-5a.5.5 0 0 1 0-1h5a.5.5 0 0 1 0 1Zm-10 0h-5a.5.5 0 0 1 0-1h5a.5.5 0 0 1 0 1Zm-10 0h-5a.5.5 0 0 1 0-1h5a.5.5 0 0 1 0 1ZM370.522 334.021h-70.479a4.505 4.505 0 0 1-4.5-4.5v-49.6a4.505 4.505 0 0 1 4.5-4.5h70.48a4.505 4.505 0 0 1 4.5 4.5v49.6a4.505 4.505 0 0 1-4.5 4.5Zm-70.479-57.6a3.504 3.504 0 0 0-3.5 3.5v49.6a3.504 3.504 0 0 0 3.5 3.5h70.48a3.504 3.504 0 0 0 3.5-3.5v-49.6a3.504 3.504 0 0 0-3.5-3.5Z"/><rect width="59.364" height="43.57" x="386.423" y="68.04" fill="#fd6f41" rx="4"/><circle cx="119.246" cy="37.23" r="4.05" fill="#674cfb"/><circle cx="134.366" cy="37.23" r="4.05" fill="#2ca68f"/><circle cx="149.486" cy="37.23" r="4.05" fill="#fd6f41"/><path d="M445.786 121.774h-85.78a.5.5 0 0 1 0-1h85.78a.5.5 0 1 1 0 1ZM445.786 133.021h-105.78a.5.5 0 0 1 0-1h105.78a.5.5 0 1 1 0 1ZM445.786 144.268h-95.78a.5.5 0 0 1 0-1h95.78a.5.5 0 0 1 0 1ZM152.426 223.345l4.58 22.646h7.16s-11.914-17.573-11.74-22.646ZM440.437 105.925a.495.495 0 0 1-.27-.08l-48.664-31.2a.5.5 0 1 1 .539-.841l48.664 31.2a.5.5 0 0 1-.27.92Z"/><path d="M391.772 105.925a.5.5 0 0 1-.27-.921l48.665-31.2a.5.5 0 0 1 .54.842l-48.665 31.2a.495.495 0 0 1-.27.079ZM368.628 326.6a.494.494 0 0 1-.27-.079l-66.69-42.757a.5.5 0 1 1 .54-.842l66.69 42.758a.5.5 0 0 1-.27.92Z"/><path d="M301.938 326.6a.5.5 0 0 1-.27-.92l66.69-42.758a.5.5 0 1 1 .54.842l-66.691 42.757a.494.494 0 0 1-.27.08Z"/><path fill="#2ca68f" d="m350.33 232.683 26.858-26.858a1 1 0 0 1 1.414 0l16.106 16.106a1 1 0 0 0 1.414 0l7.226-7.226a1 1 0 0 1 1.414 0l17.753 17.754a1 1 0 0 1-.703 1.707l-70.772.224a1 1 0 0 1-.71-1.707Z"/><circle cx="397.695" cy="196.478" r="6.6" fill="#fd6f41"/><path fill="#fed44a" d="M179.738 327.214h56.137v6.404h-56.137z"/><path fill="#674cfb" d="M34.594 179.756h56.137v6.404H34.594z"/><path fill="#fd6f41" d="M391.554 257.409h56.137v6.404h-56.137z"/><path d="M251.84 285.778a4.592 4.592 0 1 1 4.592-4.592 4.598 4.598 0 0 1-4.593 4.592Zm0-8.184a3.592 3.592 0 1 0 3.592 3.592 3.596 3.596 0 0 0-3.593-3.592ZM340.006 116.201a4.592 4.592 0 1 1 4.593-4.592 4.597 4.597 0 0 1-4.593 4.592Zm0-8.184a3.592 3.592 0 1 0 3.593 3.592 3.596 3.596 0 0 0-3.593-3.592Z"/><path fill="#fed44a" d="m382.548 355.351-7.32-2 5.32-6.32 2 8.32zM73.608 125.435l-7.32-2 5.32-6.32 2 8.32z"/><path fill="#674cfb" d="m87.8 270.131-7.32-2 5.32-6.32 2 8.32zM165.204 93.397l-7.32-2 5.32-6.32 2 8.32z"/><path fill="#2ca68f" d="m305.597 407.023-7.32-2 5.32-6.32 2 8.32z"/></svg>